<svg xmlns="http://www.w3.org/2000/svg" viewBox="0 0 100 100" fill="none">
  <circle cx="50" cy="50" r="45" fill="#2e7d32" opacity="0.1"/>
  <path d="M50 15C30.67 15 15 30.67 15 50C15 69.33 30.67 85 50 85C69.33 85 85 69.33 85 50C85 30.67 69.33 15 50 15ZM50 75C36.19 75 25 63.81 25 50C25 36.19 36.19 25 50 25C63.81 25 75 36.19 75 50C75 63.81 63.81 75 50 75Z" fill="#2e7d32"/>
  <path d="M65 45H55V35C55 32.24 52.76 30 50 30C47.24 30 45 32.24 45 35V45H35C32.24 45 30 47.24 30 50C30 52.76 32.24 55 35 55H45V65C45 67.76 47.24 70 50 70C52.76 70 55 67.76 55 65V55H65C67.76 55 70 52.76 70 50C70 47.24 67.76 45 65 45Z" fill="#1b5e20"/>
</svg>